<svg xmlns="http://www.w3.org/2000/svg" viewBox="0 0 452.83 534.49"><defs><style>.cls-1{opacity:0.31;}.cls-2,.cls-4{fill:#b92964;}.cls-3,.cls-5{fill:none;}.cls-3,.cls-4,.cls-5{stroke:#b92964;stroke-miterlimit:10;}.cls-3,.cls-4{stroke-width:1px;}.cls-5{stroke-width:0.5px;}</style></defs><title>ana</title><g id="Camada_2" data-name="Camada 2"><g id="Capa_even3" data-name="Capa even3"><g class="cls-1"><path class="cls-2" d="M391.74,298s5.29,4.58,20.41,6.88,24.64-4.2,24.64-4.2l.3,0A13.13,13.13,0,0,0,436,293c-.68-1.37-2-2.76-4.75-4.73a9.42,9.42,0,0,0-2.35-1.22,17.35,17.35,0,0,0-8.23-.44C414.41,287.53,405.3,290.7,391.74,298Z"/><path class="cls-2" d="M418.78,255.14c-11.54,0-24.32,35.06-26.66,41.76.63-1,22.76-34.86,29.51-27.34,4.1,4.59-1,17.09-1,17.09a17.35,17.35,0,0,1,8.23.44s6.35-9.07,6.35-23.59c0-12.94-11.86-10.67-11.86-10.67C423.07,257.54,418.78,255.14,418.78,255.14Z"/><path class="cls-3" d="M392.11,296.92l-.37,1.08c13.56-7.3,22.67-10.47,28.89-11.35a17.35,17.35,0,0,1,8.23.44,9.42,9.42,0,0,1,2.35,1.22c2.74,2,4.07,3.36,4.75,4.73a13.13,13.13,0,0,1,1.13,7.66c-.12,1.43-.29,2.95-.33,4.67-.12,5.05-.4,10.43.38,13,1.53,5.11,2,1,12.24,15.81s-7.65,27-30.09,31.12-139.25.51-147.92-3.57S239.74,323,239.74,323s-2.68-3.58-4.71,6.75-49.16,5-64.27-4.21c-5.7-3.46-20.41-17.09-22.19-31.24s-1.65-28.82,17.21-26.26,37.37,27.8,27.29,37.62"/><path class="cls-3" d="M141.81,180.68c18.87,2.3,118.59-16.83,121.9-46.93s30.1-33.15,30.1-33.15c46.42-4.6,72.94,43.35,76,47.68s.25,24.24,5.61,31.12,33.41,24,40.29,27,8.67,6.63,9.19,11.22-12.24,20.65-8.17,25a42.64,42.64,0,0,1,6.63,9.69c0,.17,0,.34,0,.49-.28,4.71-4.57,2.31-4.57,2.31-11.54,0-24.32,35.06-26.66,41.76"/><path class="cls-3" d="M392.11,296.92v0c.63-1,22.76-34.86,29.51-27.34,4.1,4.59-1,17.09-1,17.09"/><path class="cls-3" d="M423.35,252.83s11.86-2.27,11.86,10.67c0,14.52-6.35,23.59-6.35,23.59"/><path class="cls-3" d="M436.79,300.68s-9.53,6.5-24.64,4.2S391.74,298,391.74,298"/><path class="cls-3" d="M409.85,233.71s8.23-7.06,1.34-7.06-14.54,14-17.22,20.27-16.25-1.34-13.58-9.37,8.42-16.64,3.26-25.82"/><path class="cls-4" d="M348.45,194.32S345.58,211,331.05,211a167.45,167.45,0,0,1-24.87-1.72S334.87,209.43,348.45,194.32Z"/><path class="cls-4" d="M352.28,155.3s3.82,3.64,3.63,8.23-4,8.22-6.12,8.41-27.35-3.82-39,1.15-28.88,16.64-29.46,18,13.78-22.76,27.93-29.07S352.28,155.3,352.28,155.3Z"/><path class="cls-5" d="M392.44,192.69S378,157.48,376.19,149c-1.92-9.18-38.83-48.2-56.62-50.69a64.38,64.38,0,0,0-32.1,3.93"/><path class="cls-3" d="M412.41,366.14s-25.77,8.87-36,17.54S328.5,468.35,330,515.79,207.87,509.92,209.4,448c0,0,40.22-94.59,28.52-125.33"/><path class="cls-3" d="M321.86,97.73s25.51-21.62,8.68-42.53S234.13-52.42,139.26,48.06s-190.76,122-106.09,239,205.65,65.28,205.65,65.28"/><path class="cls-3" d="M245.88,154.13s4,82.14-36.5,71.94-8.91,56.63-8.91,56.63,2.38,4.31-21-9.07"/><path class="cls-5" d="M212.73,226.72s21,80.86,74.74,70.2,24.67-34.12-6.17-49.42-41.05-43.85-41.05-43.85"/><path class="cls-5" d="M226,259.08s78.31,44.27,106.62,31.64-13.78-40.93-71.92-47.05,49.59,36,49.59,36"/><path class="cls-5" d="M405.26,350.78s-13.39-37.49-21.81-39.4,16.84,44-8,42.46-76.51.39-89.51-6.5-32.9-36-32.9-36"/><path class="cls-5" d="M369.81,375s-16.83,9.18-23.46,23.46-25.51,74.47-25.51,74.47"/><path class="cls-5" d="M310.89,97.73s27.81-40.49-20.65-52.22"/><path class="cls-5" d="M245.38,175.58s-7.17,26-29.1,24-78-10.2-60.7,24,44.89,59.18,44.89,59.18"/><path class="cls-5" d="M239.87,342.44S149,378.07,117.33,317.37s-41.83-103,20.91-71.91"/><path class="cls-5" d="M97.44,322.62s-106.61-90.07-53-140.49,127.55-3.49,168.34-33.08,52.7-35.71,58-34.43"/><path class="cls-5" d="M187.59,290.92s-9.55-9.22-20.23-11.68c-5.38-1.25-11.05-.77-15.92,3.46"/><path class="cls-5" d="M158.52,289.38s3.87-9.11,12.45-9.05"/><path class="cls-5" d="M206.91,315.78a13,13,0,0,0-13,1.53c-6.5,4.78-15.3.57-17.59,0"/><path class="cls-5" d="M357.06,175.58s-1.28,16.83,6.12,20.4-2.55-13.52-22.44-10.2-36.2,21.93-36.2,21.93"/></g></g></g></svg>