<svg xmlns="http://www.w3.org/2000/svg" viewBox="0 0 58.24 24.36"><defs><style>.cls-1{fill:#e32526;}.cls-2{fill:#cc2126;}.cls-3{fill:#100f0d;}.cls-4{fill:#fefefe;}.cls-5{fill:#e10000;}.cls-6{fill:#e20002;}.cls-7{fill:#e20000;}.cls-8{fill:#e10101;}.cls-9{fill:#e31a1b;}.cls-10{fill:#e20001;}.cls-11{fill:#e40000;}.cls-12{fill:#e20101;}.cls-13{fill:#da0000;}.cls-14{fill:#e40101;}</style></defs><title>icone_youtube</title><g id="Camada_2" data-name="Camada 2"><g id="Capa_even3" data-name="Capa even3"><path class="cls-1" d="M24.09,20.37A13.85,13.85,0,0,1,23.5,16a74.51,74.51,0,0,1,.12-9.45,11.36,11.36,0,0,1,.72-3.45A4.21,4.21,0,0,1,28,.42,92,92,0,0,1,37.28,0C41.62,0,46,0,50.3.18a19,19,0,0,1,4,.36,4.19,4.19,0,0,1,3,2.58A11.5,11.5,0,0,1,58,6.58a71.74,71.74,0,0,1-.12,12.35,5,5,0,0,1-.39,1.56.46.46,0,0,1-.42.09,6.74,6.74,0,0,0-1.49-.07c-6.19,0-12.38,0-18.57,0q-6.2,0-12.41,0A.81.81,0,0,1,24.09,20.37Z"/><path class="cls-2" d="M24.09,20.37a7.26,7.26,0,0,1,1.8-.14h7.5a2.52,2.52,0,0,0,1.33-.17c.32-.19.53.19.84.18,3.28,0,6.55.06,9.83-.06.75,0,1.5.05,2.25.05h8.58a2.42,2.42,0,0,1,1.3.26A4.38,4.38,0,0,1,53.39,24c-6,.38-12,.5-18.06.29-2.2-.07-4.4-.07-6.59-.28a8.13,8.13,0,0,1-1.83-.36A4.08,4.08,0,0,1,24.09,20.37Z"/><path class="cls-3" d="M19.37,18.61l-1,.77a2,2,0,0,1-1.94.37c-.66-.22-.83-.82-.91-1.45a52.41,52.41,0,0,1-.13-5.88c0-1.29,0-2.59,0-3.88,0-.49.17-.63.64-.63,1.57,0,1.57,0,1.57,1.57V17c0,.35,0,.74.38.87a.91.91,0,0,0,1-.42,1.8,1.8,0,0,0,.44-1.23c0-2.51,0-5,0-7.51,0-.57.12-.81.75-.79,1.47,0,1.47,0,1.47,1.47,0,3.2,0,6.39,0,9.59,0,.61-.19.83-.78.75a1,1,0,0,0-.25,0C19.53,19.71,19.53,19.71,19.37,18.61Z"/><path class="cls-3" d="M4,9.77c.21-.79.44-1.58.65-2.38l.75-2.81a1.34,1.34,0,0,1,.15-.41A5.3,5.3,0,0,1,7.78,4.1c.2.17.09.35,0,.54C7.13,6.82,6.49,9,5.75,11.17a11.62,11.62,0,0,0-.7,4.37c.06,1.18,0,2.37,0,3.56,0,.42-.1.61-.58.62-1.76.05-1.76.06-1.76-1.69a20.4,20.4,0,0,1,0-2.07,14.2,14.2,0,0,0-1-6C1.17,8.26.66,6.48.08,4.72-.1,4.17,0,4,.6,4,2.33,4,2.32,4,2.76,5.73c.35,1.34.72,2.68,1.09,4Z"/><path class="cls-4" d="M47.55,16.7c-.08.57-.16,1.15-.26,1.71a2,2,0,0,1-.92,1.35c-.55.37-1.17.08-1.77-.07s-.81-.67-1.32-1.1v1.1a5.06,5.06,0,0,1-2.05,0V4.07a4.18,4.18,0,0,1,2.05,0,.08.08,0,0,0,0,.1c.12,1.33,0,2.66.06,4,0,.25-.11.53.2.69a3.65,3.65,0,0,1,1.51-.91,1.69,1.69,0,0,1,2.09,1.13,17.39,17.39,0,0,1,.39,2c.14.14.08.32.08.49v4.65C47.63,16.38,47.69,16.56,47.55,16.7Z"/><path class="cls-4" d="M35.55,17.63c.18.42.49.34.8.19a1.52,1.52,0,0,0,.73-.77,2.47,2.47,0,0,0,.05-.9c0-2.49,0-5,0-7.49,0-.21-.09-.43.09-.61h0v0a6,6,0,0,1,2.35,0V8h0c.19.12.1.31.1.47,0,3.57,0,7.15,0,10.72,0,.16.09.36-.1.48h0v0a6.09,6.09,0,0,1-2.33,0V18.54a5.85,5.85,0,0,0-.8.73c-.59.78-1.39.63-2.19.54a.66.66,0,0,1-.48-.38A3.17,3.17,0,0,1,33.32,18c0-3.32,0-6.65,0-10a6.56,6.56,0,0,1,2.21,0l0,0a.28.28,0,0,1,.09.23C35.56,11.39,35.61,14.51,35.55,17.63Z"/><path class="cls-4" d="M48.89,10.93a2.49,2.49,0,0,0,.11-.29,3,3,0,0,1,3.13-2.75,3,3,0,0,1,3.08,2.8,2.53,2.53,0,0,0,.12.36,12,12,0,0,1,0,3.23l0,0,0,0c-.21.22-.48.11-.72.11-.92,0-1.85,0-2.77,0-.54,0-.65.19-.66.67,0,.76.09,1.5,0,2.26a.84.84,0,0,0,.82.67c.37,0,.73,0,.84-.48a5.37,5.37,0,0,0,0-1.33c0-.23,0-.47.25-.6.6,0,1.19,0,1.78,0,.14,0,.31-.07.38.13,0,.45-.06.9-.08,1.35a3.4,3.4,0,0,1-1.48,2.57,2,2,0,0,1-1.42.3H52a2.26,2.26,0,0,1-1.42-.27A3.75,3.75,0,0,1,49,17.33c-.05-.17-.09-.33-.14-.49s-.08-.42-.08-.63V11.55C48.8,11.35,48.72,11.12,48.89,10.93Z"/><path class="cls-4" d="M26.32,6.35V4.07c.09-.14.23-.1.35-.1C29,4,31.25,4,33.54,4c.07.05.16.11.17.19a6,6,0,0,1-.06,2.2h.05v0a4.82,4.82,0,0,1-1.89.09c-.52,0-.65.15-.65.66q0,6,0,12c0,.22.09.47-.09.68l0,0a7.28,7.28,0,0,1-2.33,0c0-.26-.05-.51-.05-.77q0-5.94,0-11.87c0-.23.09-.47-.08-.68A10,10,0,0,1,26.32,6.35Z"/><path class="cls-5" d="M31.08,19.72c0-4.22,0-8.44,0-12.67,0-.61.19-.75.75-.71s1.25,0,1.87,0A2.73,2.73,0,0,1,32,6.48c-.64,0-.79.2-.78.81,0,3.88,0,7.76,0,11.64C31.23,19.2,31.33,19.49,31.08,19.72Z"/><path class="cls-6" d="M26.32,6.35l2.32.05q0,6.21,0,12.43a1.7,1.7,0,0,1-.1.7v-.69c0-3.87,0-7.73,0-11.59,0-.61-.18-.79-.77-.77S26.77,6.65,26.32,6.35Z"/><path class="cls-7" d="M39.49,19.72V8.05c.23.17.17.42.17.65V19.06C39.66,19.29,39.72,19.54,39.49,19.72Z"/><path class="cls-8" d="M35.55,17.63c0-1.82,0-3.64,0-5.47,0-1.37,0-2.74,0-4.11.18.14.15.34.15.53,0,2.87,0,5.74,0,8.62A2.2,2.2,0,0,1,35.55,17.63Z"/><path class="cls-9" d="M51.23,17.25a16.49,16.49,0,0,1-.12-2.63c0-.41.24-.37.5-.37l3.72,0c-.16.25-.42.18-.64.18-.91,0-1.81,0-2.72,0-.53,0-.65.19-.65.68A8,8,0,0,1,51.23,17.25Z"/><path class="cls-7" d="M37.23,8.05c0,2.78,0,5.56,0,8.34,0,.22.1.47-.13.66,0-2.8,0-5.6,0-8.41C37.07,8.43,37,8.21,37.23,8.05Z"/><path class="cls-7" d="M33.57,4l-7.25,0c.13-.19.34-.17.53-.17l6.72,0a.06.06,0,0,1,0,.08S33.58,4,33.57,4Z"/><path class="cls-10" d="M47.55,16.7V11.07l0-.06s0,0,0,0,.07.07.07.12c0,2,0,4-.06,6Z"/><path class="cls-5" d="M48.89,10.93v5.91c-.19,0-.14-.12-.14-.21,0-1.83,0-3.66,0-5.5C48.74,11,48.7,10.9,48.89,10.93Z"/><path class="cls-11" d="M43.56,8.84c-.06.07-.12.19-.16.19-.2,0-.1-.19-.1-.29,0-1.52,0-3,0-4.57a8.39,8.39,0,0,1,.12,2.24A9,9,0,0,0,43.56,8.84Z"/><path class="cls-7" d="M55.31,14.28l0-3.23c.12,0,.14.06.14.14v2.69A.48.48,0,0,1,55.31,14.28Z"/><path class="cls-12" d="M33.57,4V3.92a.4.4,0,0,1,.25.41c-.07.67.21,1.38-.17,2A9.56,9.56,0,0,0,33.57,4Z"/><path class="cls-7" d="M39.54,8.08H37.19A3.64,3.64,0,0,1,39.54,8.08Z"/><path class="cls-13" d="M28.78,19.72l2.33,0A4,4,0,0,1,28.78,19.72Z"/><path class="cls-13" d="M37.21,19.69h2.33A3.51,3.51,0,0,1,37.21,19.69Z"/><path class="cls-7" d="M35.52,8.07l-2.21,0A3.7,3.7,0,0,1,35.52,8.07Z"/><path class="cls-12" d="M55.35,15.64l-2.21-.07s0-.05,0-.08,0,0,0,0h1.65C55,15.44,55.22,15.43,55.35,15.64Z"/><path class="cls-7" d="M43.28,4.07H41.23A2.7,2.7,0,0,1,43.28,4.07Z"/><path class="cls-12" d="M53.14,15.45v.12c-.2.39,0,.81-.1,1.21,0,.22.06.47-.15.66,0-.46,0-.93,0-1.39C52.88,15.81,52.89,15.58,53.14,15.45Z"/><path class="cls-2" d="M41.23,19.69h2.05A2.9,2.9,0,0,1,41.23,19.69Z"/><path class="cls-2" d="M50.55,19.59a11.12,11.12,0,0,0,1.42.27A1.33,1.33,0,0,1,50.55,19.59Z"/><path class="cls-2" d="M52.37,19.86a6.9,6.9,0,0,0,1.42-.3A1.28,1.28,0,0,1,52.37,19.86Z"/><path class="cls-3" d="M13.74,10.59a2.9,2.9,0,0,0-2.27-2.65c-1.75-.29-3,.3-3.58,1.72a5.43,5.43,0,0,0-.36,1.95c0,1.55,0,3.11,0,4.66a3.8,3.8,0,0,0,1.17,2.9,3.1,3.1,0,0,0,4.92-1.44,15,15,0,0,0,.25-3.79c0-.56,0-1.12,0-1.68A11.76,11.76,0,0,0,13.74,10.59Zm-2.08,6c0,.55-.09,1.11-.75,1.27s-1.15-.31-1.18-1.16,0-1.85,0-2.78,0-1.81,0-2.72a2,2,0,0,1,.18-.87.83.83,0,0,1,.84-.49.81.81,0,0,1,.76.5,1.87,1.87,0,0,1,.17.81C11.67,13,11.68,14.8,11.66,16.61Z"/><path class="cls-1" d="M43.33,10.39a1.21,1.21,0,0,1,.77-.52c.64-.17.92,0,1.11.78-.08,2.15-.05,4.31,0,6.46-.29,1-.93,1.11-1.79.35a16.2,16.2,0,0,1,0-2.31C43.33,13.56,43.39,12,43.33,10.39Z"/><path class="cls-14" d="M43.33,10.39a.94.94,0,0,1,.09.57q0,3.24,0,6.5c0-.07-.11-.15-.11-.22C43.3,15,43.32,12.68,43.33,10.39Z"/><path class="cls-7" d="M45.2,17.11a1.09,1.09,0,0,1-.09-.69c0-1.69,0-3.39,0-5.09a1,1,0,0,1,.1-.68C45.27,12.8,45.29,15,45.2,17.11Z"/><path class="cls-1" d="M51.23,10.39a.91.91,0,0,1,1.66-.09,10.12,10.12,0,0,1,0,1.74c0,.15,0,.33-.19.34a6.94,6.94,0,0,1-1.29,0c-.3,0-.26-.3-.26-.5A6.66,6.66,0,0,0,51.23,10.39Z"/><path class="cls-12" d="M51.23,10.39a3.53,3.53,0,0,1,.09,1.41c0,.38.13.52.53.53,1,0,1,.05,1-1,0-.35,0-.69,0-1a2.65,2.65,0,0,1,.1,1.93c-.2.55-1,.13-1.48.23-.26,0-.4,0-.38-.34A8.34,8.34,0,0,1,51.23,10.39Z"/></g></g></svg>