<svg xmlns="http://www.w3.org/2000/svg" xmlns:xlink="http://www.w3.org/1999/xlink" viewBox="0 0 29.67 43.06"><defs><style>.cls-1{fill:url(#Gradiente_sem_nome_53);}.cls-2{fill:url(#Gradiente_sem_nome_53-2);}.cls-3{fill:url(#Gradiente_sem_nome_53-3);}.cls-4{fill:url(#Gradiente_sem_nome_53-4);}.cls-5{fill:url(#Gradiente_sem_nome_53-5);}.cls-6{fill:url(#Gradiente_sem_nome_53-6);}.cls-7{fill:url(#Gradiente_sem_nome_53-7);}.cls-8{fill:url(#Gradiente_sem_nome_53-8);}.cls-9{fill:url(#Gradiente_sem_nome_53-9);}</style><linearGradient id="Gradiente_sem_nome_53" x1="-6.86" y1="-0.63" x2="35.5" y2="36" gradientUnits="userSpaceOnUse"><stop offset="0" stop-color="#e6397b"/><stop offset="0.06" stop-color="#d04281"/><stop offset="0.14" stop-color="#ba4a86"/><stop offset="0.22" stop-color="#ad4f8a"/><stop offset="0.29" stop-color="#a9518b"/><stop offset="0.45" stop-color="#c9659a"/><stop offset="0.68" stop-color="#ff86b3"/><stop offset="1" stop-color="#b92964"/></linearGradient><linearGradient id="Gradiente_sem_nome_53-2" x1="-3.05" y1="-5.04" x2="39.31" y2="31.59" xlink:href="#Gradiente_sem_nome_53"/><linearGradient id="Gradiente_sem_nome_53-3" x1="-16.14" y1="10.1" x2="26.22" y2="46.73" xlink:href="#Gradiente_sem_nome_53"/><linearGradient id="Gradiente_sem_nome_53-4" x1="-11.78" y1="5.06" x2="30.58" y2="41.69" xlink:href="#Gradiente_sem_nome_53"/><linearGradient id="Gradiente_sem_nome_53-5" x1="-6.69" y1="-0.83" x2="35.67" y2="35.8" xlink:href="#Gradiente_sem_nome_53"/><linearGradient id="Gradiente_sem_nome_53-6" x1="-11.18" y1="4.37" x2="31.18" y2="41" xlink:href="#Gradiente_sem_nome_53"/><linearGradient id="Gradiente_sem_nome_53-7" x1="-14.09" y1="7.73" x2="28.27" y2="44.36" xlink:href="#Gradiente_sem_nome_53"/><linearGradient id="Gradiente_sem_nome_53-8" x1="-10.06" y1="3.07" x2="32.3" y2="39.7" xlink:href="#Gradiente_sem_nome_53"/><linearGradient id="Gradiente_sem_nome_53-9" x1="-9.87" y1="2.85" x2="32.49" y2="39.48" xlink:href="#Gradiente_sem_nome_53"/></defs><title>icone_certificado</title><g id="Camada_2" data-name="Camada 2"><g id="Capa_even3" data-name="Capa even3"><path class="cls-1" d="M0,17.8V3.09A3,3,0,0,1,1.22.7,3.17,3.17,0,0,1,3.3,0H25.65a3.2,3.2,0,0,1,3,1.88A2.48,2.48,0,0,1,29,3q0,14.84,0,29.68a2.81,2.81,0,0,1-.83,1.9c-.11.12-.17.13-.28,0L26.6,33.13c-.05-.06-.12-.12-.07-.19.24-.27.15-.6.15-.91V3.49a1.35,1.35,0,0,0-.06-.66,1,1,0,0,0-.91-.55H3.24a.89.89,0,0,0-1,1V32.38a.92.92,0,0,0,1,1c3.05,0,6.09,0,9.14,0a1.65,1.65,0,0,1,1.5.64,3.13,3.13,0,0,0,.74.88c.23.18.17.43.12.67,0,.07-.06.08-.11.08h-.25c-3.77,0-7.54,0-11.31,0A3.08,3.08,0,0,1,.41,34,3.17,3.17,0,0,1,0,32.33Q0,25.07,0,17.8Z"/><path class="cls-2" d="M14.48,11.81H9.11a1.67,1.67,0,0,1-1.31-.54,1.65,1.65,0,0,1-.37-1.7,1.67,1.67,0,0,1,1.5-1.16H19.75a1.71,1.71,0,0,1,1.1,3.13,1.91,1.91,0,0,1-1,.27Z"/><path class="cls-3" d="M16.22,35.2A2,2,0,0,0,17.41,35a2.11,2.11,0,0,1,1.67,0c.42.15.67.29.75.8.16,1.1.45,2.18.64,3.28.11.63.27,1.25.41,1.87,0,.15.09.31-.05.43s-.26,0-.4,0l-1.9-.55c-.15,0-.24,0-.35.11l-2.46,2c-.12.1-.24.22-.43.13s-.1-.27-.09-.43c.06-.79.17-1.58.2-2.37s.13-1.34.19-2c.05-.52.07-1,.12-1.58s.1-.87.14-1.3S16.17,35.39,16.22,35.2Z"/><path class="cls-4" d="M29.37,38.51c-1.12-.14-2.23-.06-3.32-.17a.36.36,0,0,0-.34.15c-.42.56-.86,1.1-1.31,1.64-.16.19-.33.17-.43-.06-.42-.91-.82-1.82-1.23-2.73a22.12,22.12,0,0,0-1-2.09A1,1,0,0,1,21.88,34a3,3,0,0,1,1.81-1.12,1.37,1.37,0,0,0,.65-.38c.18-.19.29-.16.44,0,.64.75,1.29,1.5,1.94,2.24L29.55,38a.31.31,0,0,1,.09.36A.26.26,0,0,1,29.37,38.51Z"/><path class="cls-5" d="M14.5,16.63h8.33a.85.85,0,0,1,.13,1.7.74.74,0,0,1-.21,0H6.2a.89.89,0,0,1-1-.72.84.84,0,0,1,.91-1Z"/><path class="cls-6" d="M13,21.28a16.31,16.31,0,0,0-1.39,1,1.35,1.35,0,0,0-.33.39.51.51,0,0,1-.55.3H6.17a.87.87,0,0,1-.89-1.21.84.84,0,0,1,.81-.52H13Z"/><path class="cls-7" d="M10.22,26a2.73,2.73,0,0,0-.42,1.5c0,.11,0,.2-.17.2-1.21,0-2.43,0-3.64,0a.76.76,0,0,1-.77-.9A.8.8,0,0,1,6.13,26h4.09Z"/><path class="cls-8" d="M25.16,26.41a2.8,2.8,0,0,1-.64-1,5.31,5.31,0,0,1-.06-1.19,2.2,2.2,0,0,0-.23-1c-.33-.6-1-.7-1.53-.88a1.82,1.82,0,0,1-.91-.57c-.21-.27-.4-.55-.61-.83a1.47,1.47,0,0,0-1.48-.56,6.46,6.46,0,0,0-.78.25,1.76,1.76,0,0,1-1.13.1c-.32-.1-.65-.17-1-.28a1.46,1.46,0,0,0-1.7.53,4.76,4.76,0,0,1-.9,1.1,4.45,4.45,0,0,1-1.18.46,1.72,1.72,0,0,0-.88.62,1.75,1.75,0,0,0-.25,1.29,2.53,2.53,0,0,1-.74,2,1.64,1.64,0,0,0,0,2.09,2.14,2.14,0,0,1,.75,1.76,3,3,0,0,0,.1,1.24,1.54,1.54,0,0,0,1.15.93,5.87,5.87,0,0,1,.89.31,2.1,2.1,0,0,1,.88.94,1.64,1.64,0,0,0,2.2.72,2.47,2.47,0,0,1,2.11,0,1.55,1.55,0,0,0,2.14-.7,2.69,2.69,0,0,1,1.85-1.29,1.45,1.45,0,0,0,1.15-1.07,4.72,4.72,0,0,0,.08-1.18,2.25,2.25,0,0,1,.09-.73,3.81,3.81,0,0,1,.62-.92A1.61,1.61,0,0,0,25.16,26.41Zm-7,6.21a5.14,5.14,0,1,1,5.16-5.14A5.08,5.08,0,0,1,18.14,32.62Z"/><path class="cls-9" d="M14.82,27.18A3.17,3.17,0,0,1,17,28.32c.08.09.16.16.23.25.27.31.24.3.49,0A8.62,8.62,0,0,1,21,25.63l.05,0c.13,0,.3-.16.4,0s-.1.22-.18.3a16.36,16.36,0,0,0-2.58,3.38c-.21.36-.38.76-.62,1.1-.35.52-.72.47-1.05-.06a10.05,10.05,0,0,0-1.33-1.91,8.24,8.24,0,0,0-1-.8c-.11-.08-.31-.13-.26-.3S14.67,27.22,14.82,27.18Z"/></g></g></svg>