<svg xmlns="http://www.w3.org/2000/svg" xmlns:xlink="http://www.w3.org/1999/xlink" viewBox="0 0 43.28 43.06"><defs><style>.cls-1,.cls-10,.cls-11,.cls-12,.cls-13,.cls-2,.cls-3,.cls-4,.cls-5,.cls-6,.cls-7,.cls-8,.cls-9{fill-rule:evenodd;}.cls-1{fill:url(#Gradiente_sem_nome_53);}.cls-2{fill:url(#Gradiente_sem_nome_53-2);}.cls-3{fill:url(#Gradiente_sem_nome_53-3);}.cls-4{fill:url(#Gradiente_sem_nome_53-4);}.cls-5{fill:url(#Gradiente_sem_nome_53-5);}.cls-6{fill:url(#Gradiente_sem_nome_53-6);}.cls-7{fill:url(#Gradiente_sem_nome_53-7);}.cls-8{fill:url(#Gradiente_sem_nome_53-8);}.cls-9{fill:url(#Gradiente_sem_nome_53-9);}.cls-10{fill:url(#Gradiente_sem_nome_53-10);}.cls-11{fill:url(#Gradiente_sem_nome_53-11);}.cls-12{fill:url(#Gradiente_sem_nome_53-12);}.cls-13{fill:url(#Gradiente_sem_nome_53-13);}.cls-14{fill:url(#Gradiente_sem_nome_53-14);}.cls-15{fill:url(#Gradiente_sem_nome_53-15);}</style><linearGradient id="Gradiente_sem_nome_53" x1="-4.43" y1="-11.83" x2="46.52" y2="55.44" gradientUnits="userSpaceOnUse"><stop offset="0" stop-color="#e6397b"/><stop offset="0.06" stop-color="#d04281"/><stop offset="0.14" stop-color="#ba4a86"/><stop offset="0.22" stop-color="#ad4f8a"/><stop offset="0.29" stop-color="#a9518b"/><stop offset="0.45" stop-color="#c9659a"/><stop offset="0.68" stop-color="#ff86b3"/><stop offset="1" stop-color="#b92964"/></linearGradient><linearGradient id="Gradiente_sem_nome_53-2" x1="-5.35" y1="-11.13" x2="45.6" y2="56.14" xlink:href="#Gradiente_sem_nome_53"/><linearGradient id="Gradiente_sem_nome_53-3" x1="-3.96" y1="-12.18" x2="46.99" y2="55.09" xlink:href="#Gradiente_sem_nome_53"/><linearGradient id="Gradiente_sem_nome_53-4" x1="10.28" y1="-22.97" x2="61.23" y2="44.3" xlink:href="#Gradiente_sem_nome_53"/><linearGradient id="Gradiente_sem_nome_53-5" x1="3.48" y1="-17.82" x2="54.42" y2="49.46" xlink:href="#Gradiente_sem_nome_53"/><linearGradient id="Gradiente_sem_nome_53-6" x1="-0.78" y1="-14.59" x2="50.17" y2="52.68" xlink:href="#Gradiente_sem_nome_53"/><linearGradient id="Gradiente_sem_nome_53-7" x1="-2.91" y1="-12.98" x2="48.04" y2="54.29" xlink:href="#Gradiente_sem_nome_53"/><linearGradient id="Gradiente_sem_nome_53-8" x1="-15.58" y1="-3.38" x2="35.37" y2="63.89" xlink:href="#Gradiente_sem_nome_53"/><linearGradient id="Gradiente_sem_nome_53-9" x1="-12.35" y1="-5.83" x2="38.6" y2="61.44" xlink:href="#Gradiente_sem_nome_53"/><linearGradient id="Gradiente_sem_nome_53-10" x1="-10.7" y1="-7.08" x2="40.25" y2="60.19" xlink:href="#Gradiente_sem_nome_53"/><linearGradient id="Gradiente_sem_nome_53-11" x1="-11.33" y1="-6.6" x2="39.62" y2="60.67" xlink:href="#Gradiente_sem_nome_53"/><linearGradient id="Gradiente_sem_nome_53-12" x1="0.34" y1="-15.44" x2="51.28" y2="51.83" xlink:href="#Gradiente_sem_nome_53"/><linearGradient id="Gradiente_sem_nome_53-13" x1="-7.13" y1="-9.78" x2="43.82" y2="57.49" xlink:href="#Gradiente_sem_nome_53"/><linearGradient id="Gradiente_sem_nome_53-14" x1="-8.18" y1="-8.98" x2="42.76" y2="58.29" xlink:href="#Gradiente_sem_nome_53"/><linearGradient id="Gradiente_sem_nome_53-15" x1="-3.98" y1="-12.17" x2="46.97" y2="55.1" xlink:href="#Gradiente_sem_nome_53"/></defs><title>icone_agenda</title><g id="Camada_2" data-name="Camada 2"><g id="Capa_even3" data-name="Capa even3"><path class="cls-1" d="M41.08,7.46c-1.51-1-2.43-.78-4.42-.83-.2,1.48.3,3.36-.31,4.69a3.36,3.36,0,0,1-6.1,0c-.55-1.29-.12-3.2-.3-4.68H25.36c.21.72.56,1.39.77,2.19a13,13,0,0,1-.06,7.61c.15.09-.13.08.37.13l.49,0h2.64c1.73,0,9.84-.13,10.37.09A50.52,50.52,0,0,1,40,22.19c0,2.16.16,16.19-.11,16.37-.28,1.79-2.52,1.33-4.91,1.33H10.46c-2.54,0-3.85.44-3.77-2.47,0-2,0-4.1,0-6.11s.11-4.1,0-6c-.47-.33-1.17-.65-1.71-1L3.34,23.12c.13,1.68,0,9.82,0,12.14,0,2.71-.38,5.17,2.19,6.93.86.59,1.38.48,2.16.87H38.93c.74-.35,2.42-.3,3.74-2.53.28-.47.37-1.09.61-1.56V10.7C42.74,9.67,42.76,8.55,41.08,7.46Z"/><path class="cls-2" d="M7.57,23.87c12,4.91,22.32-8.79,15-18.69a8.17,8.17,0,0,0-2.22-2.35C17.67.43,14.74.34,14,0H11.09C10.4.29,9.32.33,8.55.61s-1.55.67-2.27,1c1.06.49,1.11-.05,1.92,1.62l.21.37c2.54-1,4.36-1.36,7.2-.45A9.81,9.81,0,1,1,3.14,15.34a6.42,6.42,0,0,1-.23-3.81A7.05,7.05,0,0,1,4,8.33c1,.2,1.13,1.38,2.19,1.22.34-.76.85-5.68.22-6.13s-5.58,0-6.19.42c-.06.66,0,.37.19.65l1.41,1.2C1.59,6.45,1.05,7.55.71,8.4.3,9.43.29,10.79,0,11.54V13.4A25.1,25.1,0,0,0,.9,17,14.15,14.15,0,0,0,3,20.49a6.75,6.75,0,0,0,.55.53A11.41,11.41,0,0,0,7.57,23.87Z"/><path class="cls-3" d="M13.35,18c.15-.93,0-3.65.41-4.39.85-1.44-.43-.85,1.73-3.19l1.74-2c1.68-1.73.18-1.92-.16-1.76s-3.18,3-3.76,3.49c-1.08,1-.7.12-1.86.67a1.65,1.65,0,0,0-.94,1.52c0,1.12.64,1.26.81,1.81.26.85.1,3.91.53,4.37A.9.9,0,0,0,13.35,18Z"/><path class="cls-4" d="M34,11.48c1.44-.55,1-3.18,1-4.76a7.07,7.07,0,0,0-.21-2.66,1.6,1.6,0,0,0-2.12-.58c-.86.47-1,.65-1,1.91,0,1-.16,4.76.24,5.49A1.73,1.73,0,0,0,34,11.48Z"/><polygon class="cls-5" points="32.82 19.91 31.66 19.94 31.66 23.24 32.82 23.23 33.9 23.23 34.95 23.25 34.97 19.92 33.9 19.91 32.82 19.91"/><polygon class="cls-6" points="28.3 19.98 25 19.92 24.99 21.95 25 23.27 28.3 23.24 28.3 19.98"/><polygon class="cls-7" points="31.68 33.22 31.68 36.52 34.99 36.52 34.98 33.23 31.68 33.22"/><path class="cls-8" d="M13.22,36.54a14.4,14.4,0,0,0,1.74,0l0-3.25-3.11,0v3.11h2.54c.53,0,.32-.17.47,0H11.69C11.83,36.72,12.26,36.54,13.22,36.54Z"/><path class="cls-9" d="M15,27.46c0-.12,0-.36,0-.47s0,0,0-.08a.63.63,0,0,1,0-.13l-.06-.19V27c-.41-.43-1.95-.24-3-.24v3c1.06,0,2.6.19,3-.24v.38A10.64,10.64,0,0,0,15,27.46Z"/><path class="cls-10" d="M15,26.91c.09.34-.07-.56,0,0Z"/><polygon class="cls-11" points="18.51 36.34 21.52 36.34 21.52 33.23 18.51 33.23 18.51 36.34"/><path class="cls-12" d="M31.86,29.75h1.68c.28,0,.57,0,.84,0,.58,0,.22-.15.6,0v-3H31.86Z"/><path class="cls-13" d="M25.12,36.34h3V34.66a5.91,5.91,0,0,1,0-1.44h-3a5.91,5.91,0,0,1,0,1.44Z"/><rect class="cls-14" x="18.51" y="26.75" width="3.01" height="3"/><rect class="cls-15" x="25.12" y="26.75" width="3" height="3"/></g></g></svg>