<svg xmlns="http://www.w3.org/2000/svg" viewBox="0 0 288.18 43.06"><defs><style>.cls-1{fill:#349730;}.cls-2{fill:#c80c0f;}.cls-3{fill:#1d1d1b;}</style></defs><title>if_logo</title><g id="Camada_2" data-name="Camada 2"><g id="Capa_even3" data-name="Capa even3"><rect class="cls-1" x="11.02" y="0.44" width="8.82" height="8.81" rx="0.86"/><rect class="cls-1" x="21.6" y="0.44" width="8.82" height="8.81" rx="0.86"/><rect class="cls-1" x="21.6" y="21.6" width="8.82" height="8.82" rx="0.86"/><rect class="cls-1" x="0.44" y="11.01" width="8.82" height="8.82" rx="0.86"/><rect class="cls-1" x="11.02" y="11.01" width="8.82" height="8.82" rx="0.86"/><rect class="cls-1" x="0.44" y="21.6" width="8.82" height="8.82" rx="0.86"/><rect class="cls-1" x="11.02" y="21.6" width="8.82" height="8.82" rx="0.86"/><rect class="cls-1" x="0.44" y="32.19" width="8.82" height="8.82" rx="0.86"/><rect class="cls-1" x="11.02" y="32.19" width="8.82" height="8.82" rx="0.86"/><path class="cls-2" d="M9.7,4.85A4.85,4.85,0,1,1,4.85,0,4.85,4.85,0,0,1,9.7,4.85Z"/><rect class="cls-3" x="37.06" y="21.64" width="1.86" height="8.77"/><path class="cls-3" d="M48.94,30.41H46.57l-3.82-6.63h-.06c.08,1.17.12,2,.12,2.5v4.13H41.14V21.64h2.35l3.82,6.57h0c-.06-1.14-.09-1.94-.09-2.42V21.64h1.68v8.77ZM56.36,28a2.28,2.28,0,0,1-.86,1.87,3.76,3.76,0,0,1-2.38.68A5.63,5.63,0,0,1,50.63,30V28.28a9.27,9.27,0,0,0,1.51.55,4.36,4.36,0,0,0,1.12.17,1.55,1.55,0,0,0,.94-.24.78.78,0,0,0,.33-.69.81.81,0,0,0-.14-.46,1.66,1.66,0,0,0-.43-.39,10.19,10.19,0,0,0-1.14-.59,5.27,5.27,0,0,1-1.2-.73,2.67,2.67,0,0,1-.65-.81,2.53,2.53,0,0,1,.55-2.91,3.33,3.33,0,0,1,2.19-.66,5,5,0,0,1,1.3.16,10.21,10.21,0,0,1,1.31.45l-.61,1.45a8.09,8.09,0,0,0-1.16-.4,3.54,3.54,0,0,0-.9-.12,1.19,1.19,0,0,0-.81.25.81.81,0,0,0-.29.64.75.75,0,0,0,.12.43,1.21,1.21,0,0,0,.36.35,11,11,0,0,0,1.18.62,4.7,4.7,0,0,1,1.69,1.18A2.31,2.31,0,0,1,56.36,28Z"/><path class="cls-3" d="M61.33,30.41H59.47V23.19H57.09V21.64h6.63v1.55H61.33v7.22Zm3.76,0V21.64H67v8.77Zm7.47,0H70.7V23.19H68.31V21.64H75v1.55H72.56Z"/><path class="cls-3" d="M83.43,21.64v5.68A3.17,3.17,0,0,1,83,29a2.79,2.79,0,0,1-1.25,1.12,4.52,4.52,0,0,1-1.95.39,3.75,3.75,0,0,1-2.63-.86,3.07,3.07,0,0,1-.94-2.38V21.64h1.86V27a2.27,2.27,0,0,0,.4,1.49,1.71,1.71,0,0,0,1.36.47,1.67,1.67,0,0,0,1.32-.47,2.24,2.24,0,0,0,.41-1.5V21.64Z"/><polygon class="cls-3" points="89.06 30.41 87.19 30.41 87.19 23.19 84.81 23.19 84.81 21.64 91.44 21.64 91.44 23.19 89.06 23.19 89.06 30.41"/><path class="cls-3" d="M100.78,26a4.74,4.74,0,0,1-1.08,3.34,4.69,4.69,0,0,1-6.2,0A4.73,4.73,0,0,1,92.42,26a4.71,4.71,0,0,1,1.08-3.34,4.06,4.06,0,0,1,3.11-1.16,4,4,0,0,1,3.1,1.17A4.8,4.8,0,0,1,100.78,26Zm-6.41,0a3.6,3.6,0,0,0,.56,2.21A1.93,1.93,0,0,0,96.6,29c1.48,0,2.23-1,2.23-2.95s-.74-3-2.22-3a2,2,0,0,0-1.68.75A3.71,3.71,0,0,0,94.37,26Zm13.26,4.39H105.8V21.64h5v1.53h-3.2v2.26h3V27h-3Z"/><path class="cls-3" d="M117.65,30.41h-5.06V21.64h5.06v1.53h-3.2v1.92h3v1.52h-3v2.27h3.2v1.53Zm9.13-4.47a4.32,4.32,0,0,1-1.23,3.32A5,5,0,0,1,122,30.41h-2.49V21.64h2.76a4.62,4.62,0,0,1,3.34,1.14,4.12,4.12,0,0,1,1.19,3.16Zm-1.93,0c0-1.88-.83-2.82-2.5-2.82h-1v5.71h.8c1.79,0,2.69-1,2.69-2.89Zm8.83,4.42h-5.06V21.64h5.06v1.53h-3.2v1.92h3v1.52h-3v2.27h3.2v1.53Zm3.7-4.87h.6a2.28,2.28,0,0,0,1.31-.3,1,1,0,0,0,.42-.92,1,1,0,0,0-.43-.89,2.58,2.58,0,0,0-1.33-.26h-.57v2.37Zm0,1.51v3.36h-1.86V21.64h2.56a4.42,4.42,0,0,1,2.65.65,2.35,2.35,0,0,1,.86,2,2.31,2.31,0,0,1-.43,1.38,2.8,2.8,0,0,1-1.2.94c1.32,2,2.18,3.25,2.58,3.82h-2.07l-2.09-3.36Z"/><path class="cls-3" d="M149,30.41l-.63-2.09h-3.21l-.63,2.09h-2l3.1-8.8h2.28l3.11,8.8Zm-1.08-3.64q-.89-2.85-1-3.21c-.08-.25-.13-.45-.16-.59-.14.51-.51,1.78-1.14,3.8Z"/><polygon class="cls-3" points="152.21 30.41 152.21 21.64 154.07 21.64 154.07 28.88 157.64 28.88 157.64 30.41 152.21 30.41"/><path class="cls-3" d="M40,41l-2.25-5.87h0c0,.46.07,1,.07,1.66V41h-.72V34.39h1.16l2.11,5.46h0l2.12-5.46h1.16V41h-.78V36.74c0-.49,0-1,.07-1.59h0L40.62,41Zm8.4,0-.14-.7h0a2.16,2.16,0,0,1-.74.63,2.32,2.32,0,0,1-.93.16,1.64,1.64,0,0,1-1.16-.38A1.37,1.37,0,0,1,45,39.64c0-1,.81-1.53,2.41-1.58l.85,0v-.31a1.27,1.27,0,0,0-.26-.87,1,1,0,0,0-.8-.27,3.21,3.21,0,0,0-1.41.38l-.23-.58a3.4,3.4,0,0,1,.81-.31,3.28,3.28,0,0,1,.88-.12,1.88,1.88,0,0,1,1.31.4A1.61,1.61,0,0,1,49,37.62V41Zm-1.7-.53a1.57,1.57,0,0,0,1.11-.38,1.46,1.46,0,0,0,.4-1.08v-.45l-.75,0a2.79,2.79,0,0,0-1.3.28.84.84,0,0,0-.4.77.76.76,0,0,0,.25.62,1,1,0,0,0,.69.21Zm5.42,0a2.38,2.38,0,0,0,.39,0l.29-.06V41a1.47,1.47,0,0,1-.36.1l-.43,0c-1,0-1.44-.5-1.44-1.51v-3h-.71v-.36l.71-.32.32-1.06h.43v1.16h1.45v.58H51.32v2.92a1,1,0,0,0,.22.69.74.74,0,0,0,.58.24Zm6-1.95a2.7,2.7,0,0,1-.61,1.89,2.14,2.14,0,0,1-1.69.68,2.25,2.25,0,0,1-1.19-.31,2.13,2.13,0,0,1-.8-.9,3.06,3.06,0,0,1-.28-1.36,2.73,2.73,0,0,1,.61-1.9A2.16,2.16,0,0,1,55.82,36a2.11,2.11,0,0,1,1.66.7,2.73,2.73,0,0,1,.61,1.88Zm-3.79,0A2.41,2.41,0,0,0,54.68,40a1.54,1.54,0,0,0,2.25,0,2.32,2.32,0,0,0,.38-1.45,2.25,2.25,0,0,0-.38-1.44,1.55,1.55,0,0,0-2.25,0,2.35,2.35,0,0,0-.38,1.45Zm10.56-1h2.26v3.22a6.67,6.67,0,0,1-1.07.26,7.93,7.93,0,0,1-1.26.08,3,3,0,0,1-2.35-.89,3.53,3.53,0,0,1-.84-2.51A3.87,3.87,0,0,1,62,35.89a2.87,2.87,0,0,1,1.2-1.19A3.92,3.92,0,0,1,65,34.29a5,5,0,0,1,2,.39l-.3.68A4.52,4.52,0,0,0,65,35a2.46,2.46,0,0,0-1.89.72,2.77,2.77,0,0,0-.68,2,2.9,2.9,0,0,0,.65,2,2.54,2.54,0,0,0,1.93.69,5.54,5.54,0,0,0,1.35-.16v-2H64.86v-.69Zm6-1.59a2.77,2.77,0,0,1,.6.06l-.11.7a2.28,2.28,0,0,0-.54-.07,1.33,1.33,0,0,0-1,.49,1.82,1.82,0,0,0-.43,1.22V41H68.6v-5h.62l.09.92h0a2.15,2.15,0,0,1,.67-.75,1.49,1.49,0,0,1,.86-.27Zm5.64,2.58a2.71,2.71,0,0,1-.62,1.89,2.14,2.14,0,0,1-1.69.68A2.25,2.25,0,0,1,73,40.79a2,2,0,0,1-.79-.9,3.06,3.06,0,0,1-.29-1.36,2.78,2.78,0,0,1,.61-1.9A2.17,2.17,0,0,1,74.23,36a2.11,2.11,0,0,1,1.66.7,2.73,2.73,0,0,1,.62,1.88Zm-3.8,0A2.34,2.34,0,0,0,73.1,40a1.53,1.53,0,0,0,2.24,0,2.32,2.32,0,0,0,.38-1.45,2.25,2.25,0,0,0-.38-1.44,1.55,1.55,0,0,0-2.25,0,2.35,2.35,0,0,0-.38,1.45ZM81,39.66a1.26,1.26,0,0,1-.52,1.07,2.45,2.45,0,0,1-1.45.37,3.18,3.18,0,0,1-1.55-.31v-.7a3.94,3.94,0,0,0,.77.29,3.23,3.23,0,0,0,.79.1A1.85,1.85,0,0,0,80,40.3a.64.64,0,0,0,.32-.58.6.6,0,0,0-.25-.49,4,4,0,0,0-1-.49,4.93,4.93,0,0,1-1-.45,1.42,1.42,0,0,1-.44-.44,1.18,1.18,0,0,1-.14-.58,1.1,1.1,0,0,1,.49-1A2.29,2.29,0,0,1,79.36,36a3.92,3.92,0,0,1,1.57.33l-.27.61a3.68,3.68,0,0,0-1.35-.3,1.59,1.59,0,0,0-.81.16.53.53,0,0,0-.27.47.57.57,0,0,0,.1.34,1,1,0,0,0,.33.26,6.27,6.27,0,0,0,.87.37,3.2,3.2,0,0,1,1.2.65,1.16,1.16,0,0,1,.31.82Zm4.43,0A1.24,1.24,0,0,1,85,40.73a2.41,2.41,0,0,1-1.45.37A3.14,3.14,0,0,1,82,40.79v-.7a3.72,3.72,0,0,0,.77.29,3.17,3.17,0,0,0,.79.1,1.88,1.88,0,0,0,.91-.18.64.64,0,0,0,.32-.58.61.61,0,0,0-.26-.49,3.73,3.73,0,0,0-1-.49,5.38,5.38,0,0,1-1-.45,1.38,1.38,0,0,1-.43-.44,1.09,1.09,0,0,1-.15-.58,1.11,1.11,0,0,1,.5-1A2.26,2.26,0,0,1,83.8,36a4,4,0,0,1,1.57.33l-.27.61a3.69,3.69,0,0,0-1.36-.3,1.61,1.61,0,0,0-.81.16.53.53,0,0,0-.27.47.65.65,0,0,0,.1.34,1,1,0,0,0,.33.26,6.88,6.88,0,0,0,.87.37,3.2,3.2,0,0,1,1.2.65,1.12,1.12,0,0,1,.31.82ZM91,38.53a2.7,2.7,0,0,1-.61,1.89,2.14,2.14,0,0,1-1.69.68,2.25,2.25,0,0,1-1.19-.31,2.13,2.13,0,0,1-.8-.9,3.06,3.06,0,0,1-.28-1.36,2.73,2.73,0,0,1,.61-1.9A2.16,2.16,0,0,1,88.72,36a2.11,2.11,0,0,1,1.66.7A2.73,2.73,0,0,1,91,38.53Zm-3.79,0A2.41,2.41,0,0,0,87.58,40a1.54,1.54,0,0,0,2.25,0,2.39,2.39,0,0,0,.38-1.45,2.31,2.31,0,0,0-.38-1.44,1.35,1.35,0,0,0-1.13-.49,1.33,1.33,0,0,0-1.12.48A2.35,2.35,0,0,0,87.2,38.53Z"/><path class="cls-3" d="M178.76,24.48a2.19,2.19,0,0,0-1.73.73,3,3,0,0,0-.63,2,3,3,0,0,0,.61,2,2.16,2.16,0,0,0,1.74.71,5.78,5.78,0,0,0,1.58-.25v.68a4.86,4.86,0,0,1-1.7.26,2.88,2.88,0,0,1-2.26-.89,3.65,3.65,0,0,1-.8-2.52,3.92,3.92,0,0,1,.39-1.8,2.75,2.75,0,0,1,1.1-1.19,3.39,3.39,0,0,1,1.71-.42,4,4,0,0,1,1.82.39l-.32.66a3.52,3.52,0,0,0-1.51-.36Zm6,6-.15-.71h0a2,2,0,0,1-.74.63,2.22,2.22,0,0,1-.92.17,1.67,1.67,0,0,1-1.16-.38,1.41,1.41,0,0,1-.42-1.09c0-1,.8-1.53,2.41-1.57l.84,0v-.31a1.23,1.23,0,0,0-.25-.86,1,1,0,0,0-.81-.28,3.32,3.32,0,0,0-1.4.38l-.23-.58a3.57,3.57,0,0,1,1.68-.42,1.93,1.93,0,0,1,1.32.39,1.64,1.64,0,0,1,.43,1.27v3.39ZM183,30a1.51,1.51,0,0,0,1.1-.39,1.41,1.41,0,0,0,.4-1.08v-.45l-.75,0a2.62,2.62,0,0,0-1.29.28.82.82,0,0,0-.4.76.76.76,0,0,0,.25.62A1,1,0,0,0,183,30Zm10.15.53V27.29a1.36,1.36,0,0,0-.25-.9,1,1,0,0,0-.79-.29,1.27,1.27,0,0,0-1,.4,1.93,1.93,0,0,0-.34,1.24v2.78H190V27.29a1.36,1.36,0,0,0-.25-.9,1,1,0,0,0-.8-.29,1.25,1.25,0,0,0-1,.42,2.37,2.37,0,0,0-.32,1.39v2.61h-.76v-5h.61l.13.68h0a1.6,1.6,0,0,1,.61-.57,1.85,1.85,0,0,1,.86-.2,1.48,1.48,0,0,1,1.53.84h0a1.51,1.51,0,0,1,.64-.61,1.9,1.9,0,0,1,1-.23,1.68,1.68,0,0,1,1.27.43,1.94,1.94,0,0,1,.42,1.39v3.24Zm4.63.09a2.14,2.14,0,0,1-.89-.18,1.62,1.62,0,0,1-.67-.55h-.06a6,6,0,0,1,.06.82v2.05h-.76v-7.2h.61l.11.68h0a1.7,1.7,0,0,1,.67-.59,2.08,2.08,0,0,1,.89-.18,1.84,1.84,0,0,1,1.53.67,3,3,0,0,1,.53,1.9,3,3,0,0,1-.54,1.9,1.86,1.86,0,0,1-1.52.68Zm-.11-4.51a1.32,1.32,0,0,0-1.1.42,2.11,2.11,0,0,0-.35,1.34V28a2.44,2.44,0,0,0,.35,1.5,1.32,1.32,0,0,0,1.12.45,1.19,1.19,0,0,0,1-.52,2.51,2.51,0,0,0,.36-1.44,2.42,2.42,0,0,0-.36-1.43,1.21,1.21,0,0,0-1-.49Zm4.2-.55v3.22a1.32,1.32,0,0,0,.27.91,1.15,1.15,0,0,0,.87.3,1.39,1.39,0,0,0,1.14-.43,2.08,2.08,0,0,0,.37-1.39V25.55h.75v5h-.62l-.11-.67h0a1.48,1.48,0,0,1-.65.56,2.12,2.12,0,0,1-.93.2,1.93,1.93,0,0,1-1.36-.43,1.85,1.85,0,0,1-.46-1.38V25.55Zm8.21,3.61a1.24,1.24,0,0,1-.52,1.07,2.43,2.43,0,0,1-1.45.38,3.17,3.17,0,0,1-1.55-.32V29.6a3.92,3.92,0,0,0,.77.28,3.27,3.27,0,0,0,.8.11,1.83,1.83,0,0,0,.9-.19.65.65,0,0,0,.07-1.07,4.1,4.1,0,0,0-1-.49,4.8,4.8,0,0,1-1-.45,1.32,1.32,0,0,1-.44-.44,1.16,1.16,0,0,1-.14-.58,1.11,1.11,0,0,1,.5-1,2.33,2.33,0,0,1,1.35-.35,4.08,4.08,0,0,1,1.57.32l-.26.62a3.57,3.57,0,0,0-1.36-.31,1.58,1.58,0,0,0-.81.17.51.51,0,0,0-.27.46.57.57,0,0,0,.1.34,1.19,1.19,0,0,0,.33.27,8.45,8.45,0,0,0,.87.36,3.35,3.35,0,0,1,1.2.65,1.18,1.18,0,0,1,.31.82Zm6.6-4.68a2.19,2.19,0,0,0-1.73.73,3,3,0,0,0-.64,2,3,3,0,0,0,.61,2,2.16,2.16,0,0,0,1.75.71,5.78,5.78,0,0,0,1.58-.25v.68a4.94,4.94,0,0,1-1.7.26,2.92,2.92,0,0,1-2.27-.89,3.64,3.64,0,0,1-.79-2.52,4,4,0,0,1,.38-1.8A2.84,2.84,0,0,1,215,24.21a3.33,3.33,0,0,1,1.71-.42,4,4,0,0,1,1.82.39l-.33.66a3.44,3.44,0,0,0-1.5-.36Zm3.62,1.07v3.22a1.32,1.32,0,0,0,.27.91,1.15,1.15,0,0,0,.87.3,1.39,1.39,0,0,0,1.14-.43,2.15,2.15,0,0,0,.36-1.39V25.55h.76v5h-.63l-.11-.67h0a1.46,1.46,0,0,1-.64.56,2.16,2.16,0,0,1-.94.2,1.94,1.94,0,0,1-1.36-.43,1.85,1.85,0,0,1-.45-1.38V25.55Zm5.75,5h-.76v-5h.76v5Zm-.82-6.32a.49.49,0,0,1,.13-.38.48.48,0,0,1,.32-.11.45.45,0,0,1,.31.12.46.46,0,0,1,.13.37.49.49,0,0,1-.13.38.46.46,0,0,1-.31.13.44.44,0,0,1-.32-.13.49.49,0,0,1-.13-.38Zm5.48,6.32-.15-.71h0a2.08,2.08,0,0,1-.74.63,2.29,2.29,0,0,1-.92.17,1.7,1.7,0,0,1-1.17-.38,1.45,1.45,0,0,1-.42-1.09c0-1,.81-1.53,2.42-1.57l.84,0v-.31a1.23,1.23,0,0,0-.25-.86,1,1,0,0,0-.81-.28,3.39,3.39,0,0,0-1.41.38l-.23-.58a4.12,4.12,0,0,1,.81-.31,3.72,3.72,0,0,1,.88-.11,1.93,1.93,0,0,1,1.32.39,1.68,1.68,0,0,1,.43,1.27v3.39ZM229,30a1.52,1.52,0,0,0,1.1-.39,1.41,1.41,0,0,0,.4-1.08v-.45l-.75,0a2.7,2.7,0,0,0-1.3.28.84.84,0,0,0-.4.76.79.79,0,0,0,.25.62,1,1,0,0,0,.7.22Zm6.13-4.52a1.84,1.84,0,0,1,1.52.67,2.92,2.92,0,0,1,.54,1.89,2.93,2.93,0,0,1-.55,1.9,1.84,1.84,0,0,1-1.51.68,2.14,2.14,0,0,1-.89-.18,1.65,1.65,0,0,1-.68-.55h0l-.16.64h-.54V23.46h.75v1.72c0,.38,0,.73,0,1h0a1.78,1.78,0,0,1,1.57-.74Zm-.11.63a1.34,1.34,0,0,0-1.12.44A2.55,2.55,0,0,0,233.6,28a2.51,2.51,0,0,0,.35,1.5,1.34,1.34,0,0,0,1.12.45,1.16,1.16,0,0,0,1-.51,2.55,2.55,0,0,0,.34-1.45,2.48,2.48,0,0,0-.34-1.45,1.23,1.23,0,0,0-1.05-.47Zm6.55,4.42-.15-.71h0a2.08,2.08,0,0,1-.74.63,2.29,2.29,0,0,1-.92.17,1.71,1.71,0,0,1-1.17-.38,1.45,1.45,0,0,1-.42-1.09c0-1,.81-1.53,2.42-1.57l.84,0v-.31a1.23,1.23,0,0,0-.25-.86,1,1,0,0,0-.81-.28,3.32,3.32,0,0,0-1.4.38l-.24-.58a4.12,4.12,0,0,1,.81-.31,3.72,3.72,0,0,1,.88-.11,1.93,1.93,0,0,1,1.32.39,1.68,1.68,0,0,1,.43,1.27v3.39Zm-1.7-.53a1.52,1.52,0,0,0,1.1-.39,1.41,1.41,0,0,0,.4-1.08v-.45l-.75,0a2.7,2.7,0,0,0-1.3.28.83.83,0,0,0-.39.76.78.78,0,0,0,.24.62,1,1,0,0,0,.7.22Zm-.18-5.21c.14-.19.3-.42.47-.68s.3-.5.4-.7h.91v.1a6.51,6.51,0,0,1-.59.73,6.6,6.6,0,0,1-.69.66h-.5Z"/><path class="cls-3" d="M178.76,34.8a2.16,2.16,0,0,0-1.73.73,2.91,2.91,0,0,0-.63,2,3,3,0,0,0,.61,2,2.19,2.19,0,0,0,1.74.71,6.19,6.19,0,0,0,1.58-.25v.67a4.64,4.64,0,0,1-1.7.26,2.88,2.88,0,0,1-2.26-.89,3.65,3.65,0,0,1-.8-2.52,4,4,0,0,1,.39-1.8,2.68,2.68,0,0,1,1.1-1.18,3.39,3.39,0,0,1,1.71-.42,4.17,4.17,0,0,1,1.82.38l-.32.66a3.65,3.65,0,0,0-1.51-.35Zm5,6.12a2.29,2.29,0,0,1-1.74-.67,2.62,2.62,0,0,1-.64-1.86,2.91,2.91,0,0,1,.59-1.91,2,2,0,0,1,1.6-.71,1.89,1.89,0,0,1,1.48.62A2.37,2.37,0,0,1,185.6,38v.47h-3.43a2,2,0,0,0,.45,1.33,1.53,1.53,0,0,0,1.18.45,4.12,4.12,0,0,0,1.59-.33v.67a4.48,4.48,0,0,1-.76.25,4.26,4.26,0,0,1-.86.07Zm-.2-4.52a1.24,1.24,0,0,0-1,.39,1.77,1.77,0,0,0-.42,1.08h2.6a1.67,1.67,0,0,0-.31-1.09,1.15,1.15,0,0,0-.91-.38Zm4.07,4.43h-.75v-7h.75v7Zm1.49-.48a.68.68,0,0,1,.14-.46.51.51,0,0,1,.4-.16.57.57,0,0,1,.41.16.63.63,0,0,1,.14.46.65.65,0,0,1-.14.45.54.54,0,0,1-.41.16.56.56,0,0,1-.39-.14.63.63,0,0,1-.15-.47ZM200,37.51a3.63,3.63,0,0,1-.81,2.5,2.82,2.82,0,0,1-2.24.91A2.88,2.88,0,0,1,194.7,40a3.69,3.69,0,0,1-.8-2.53,3.64,3.64,0,0,1,.8-2.51A2.9,2.9,0,0,1,197,34.1a2.8,2.8,0,0,1,2.23.91,3.6,3.6,0,0,1,.81,2.5Zm-5.29,0a3.14,3.14,0,0,0,.57,2,2.05,2.05,0,0,0,1.67.7,2,2,0,0,0,1.67-.7,3.2,3.2,0,0,0,.56-2,3.19,3.19,0,0,0-.56-2,2,2,0,0,0-1.66-.69,2.05,2.05,0,0,0-1.68.69,3.15,3.15,0,0,0-.57,2Zm8.64,3.41a2.12,2.12,0,0,1-1.67-.66,2.72,2.72,0,0,1-.59-1.88,2.84,2.84,0,0,1,.6-1.93,2.17,2.17,0,0,1,1.71-.68,3.53,3.53,0,0,1,.72.08,2.16,2.16,0,0,1,.56.18l-.23.64a4.26,4.26,0,0,0-.54-.17,2.69,2.69,0,0,0-.53-.06c-1,0-1.51.64-1.51,1.93a2.25,2.25,0,0,0,.37,1.4,1.26,1.26,0,0,0,1.09.49,3.52,3.52,0,0,0,1.28-.26v.66a2.62,2.62,0,0,1-1.26.26Zm4-.62a2.34,2.34,0,0,0,.38,0l.3-.06v.58a1.55,1.55,0,0,1-.36.09,2.37,2.37,0,0,1-.43,0c-1,0-1.45-.51-1.45-1.52V36.45h-.71v-.36l.71-.32.32-1.06h.44v1.15h1.44v.59h-1.44v2.92a1,1,0,0,0,.21.69.75.75,0,0,0,.59.24Zm4.73.53-.15-.71h0a2.14,2.14,0,0,1-.75.64,2.23,2.23,0,0,1-.92.16,1.64,1.64,0,0,1-1.16-.38,1.37,1.37,0,0,1-.42-1.08c0-1,.8-1.53,2.41-1.58l.85,0v-.31a1.24,1.24,0,0,0-.26-.86,1,1,0,0,0-.8-.28,3.32,3.32,0,0,0-1.41.38l-.23-.57a3,3,0,0,1,.8-.31,3.39,3.39,0,0,1,.88-.12,1.85,1.85,0,0,1,1.32.4,1.61,1.61,0,0,1,.43,1.26v3.39Zm-1.7-.53a1.53,1.53,0,0,0,1.11-.39,1.43,1.43,0,0,0,.4-1.07v-.45l-.76,0a2.62,2.62,0,0,0-1.29.28.83.83,0,0,0-.4.77.76.76,0,0,0,.25.62,1,1,0,0,0,.69.21Zm3-4.44h.81l1.09,2.84a10.79,10.79,0,0,1,.45,1.4h0c0-.16.13-.42.25-.79s.54-1.53,1.23-3.45h.81L216,41.52a2.8,2.8,0,0,1-.74,1.19,1.59,1.59,0,0,1-1,.35,2.58,2.58,0,0,1-.68-.08v-.6a2.34,2.34,0,0,0,.56.06,1.15,1.15,0,0,0,1.1-.87l.28-.71-2-5Zm8.87,4.3h0a1.77,1.77,0,0,1-1.57.76,1.87,1.87,0,0,1-1.52-.66,3.6,3.6,0,0,1,0-3.81,2,2,0,0,1,3.07.06h.06l0-.36V33.78H223v7h-.61l-.1-.67Zm-1.51.13a1.38,1.38,0,0,0,1.12-.42,2.12,2.12,0,0,0,.35-1.35v-.16a2.46,2.46,0,0,0-.36-1.51,1.33,1.33,0,0,0-1.12-.45,1.13,1.13,0,0,0-1,.52,3.12,3.12,0,0,0,0,2.89,1.21,1.21,0,0,0,1,.48Zm5.92.63a2.26,2.26,0,0,1-1.74-.67,2.58,2.58,0,0,1-.64-1.86,2.91,2.91,0,0,1,.59-1.91,2,2,0,0,1,1.59-.71,1.87,1.87,0,0,1,1.48.62,2.32,2.32,0,0,1,.55,1.62v.47h-3.43a2,2,0,0,0,.44,1.33,1.55,1.55,0,0,0,1.19.45,4.12,4.12,0,0,0,1.59-.33v.67a4.48,4.48,0,0,1-.76.25,4.26,4.26,0,0,1-.86.07Zm-.2-4.52a1.24,1.24,0,0,0-1,.39,1.77,1.77,0,0,0-.42,1.08h2.6a1.61,1.61,0,0,0-.32-1.09,1.11,1.11,0,0,0-.9-.38Zm4.88,6.18a1.37,1.37,0,0,1-.67-.13V41.8a2.41,2.41,0,0,0,.67.09.85.85,0,0,0,.68-.27,1.18,1.18,0,0,0,.24-.79V34.2h.77v6.57a1.89,1.89,0,0,1-.44,1.33,1.61,1.61,0,0,1-1.25.48Zm7.63-4.24a2.75,2.75,0,0,1-.61,1.9,2.44,2.44,0,0,1-2.88.37,2.07,2.07,0,0,1-.8-.9,3.1,3.1,0,0,1-.28-1.37,2.7,2.7,0,0,1,.61-1.89,2.16,2.16,0,0,1,1.69-.68,2.11,2.11,0,0,1,1.66.7,2.7,2.7,0,0,1,.61,1.87Zm-3.79,0a2.37,2.37,0,0,0,.38,1.45,1.31,1.31,0,0,0,1.12.5,1.34,1.34,0,0,0,1.13-.49,2.42,2.42,0,0,0,.38-1.46,2.35,2.35,0,0,0-.38-1.44,1.39,1.39,0,0,0-1.14-.49,1.3,1.3,0,0,0-1.11.49,2.31,2.31,0,0,0-.38,1.44Zm7.38-2.57a2.77,2.77,0,0,1,.6.06l-.11.69a2.78,2.78,0,0,0-.54-.06,1.34,1.34,0,0,0-1,.49,1.78,1.78,0,0,0-.42,1.21v2.67h-.76v-5H241l.09.92h0a2.21,2.21,0,0,1,.66-.75,1.55,1.55,0,0,1,.86-.26Zm5.51.09v.48l-.92.11a1.42,1.42,0,0,1,.22.41,1.54,1.54,0,0,1,.1.58,1.49,1.49,0,0,1-.49,1.17,2,2,0,0,1-1.38.43,1.84,1.84,0,0,1-.41,0,.75.75,0,0,0-.49.64.32.32,0,0,0,.17.3,1.18,1.18,0,0,0,.58.1h.88a2,2,0,0,1,1.24.34,1.19,1.19,0,0,1,.44,1,1.43,1.43,0,0,1-.67,1.26,3.52,3.52,0,0,1-1.93.43A2.7,2.7,0,0,1,244,42.7a1.19,1.19,0,0,1-.53-1,1.16,1.16,0,0,1,.29-.78,1.53,1.53,0,0,1,.82-.45.83.83,0,0,1-.32-.27.75.75,0,0,1-.13-.42.75.75,0,0,1,.15-.47,1.44,1.44,0,0,1,.46-.4,1.26,1.26,0,0,1-.63-.54,1.51,1.51,0,0,1-.25-.87,1.62,1.62,0,0,1,.5-1.26,2,2,0,0,1,1.38-.44,2.6,2.6,0,0,1,.71.09Zm-4,5.8a.68.68,0,0,0,.34.62,2,2,0,0,0,1,.2,2.69,2.69,0,0,0,1.4-.28.86.86,0,0,0,.46-.77.61.61,0,0,0-.25-.56,2,2,0,0,0-.94-.15h-.9a1.19,1.19,0,0,0-.8.24.88.88,0,0,0-.29.7Zm.41-4.21a1,1,0,0,0,.29.79,1.2,1.2,0,0,0,.83.27,1,1,0,0,0,1.1-1.07,1,1,0,0,0-1.12-1.12,1,1,0,0,0-1.1,1.13Zm6.68,3.47a2.29,2.29,0,0,1-1.74-.67,2.62,2.62,0,0,1-.64-1.86,2.86,2.86,0,0,1,.6-1.91,2,2,0,0,1,1.59-.71,1.89,1.89,0,0,1,1.48.62A2.37,2.37,0,0,1,253.1,38v.47h-3.43a2,2,0,0,0,.45,1.33,1.53,1.53,0,0,0,1.18.45,4,4,0,0,0,1.59-.33v.67a4.48,4.48,0,0,1-.76.25,4.2,4.2,0,0,1-.86.07Zm-.2-4.52a1.24,1.24,0,0,0-1,.39,1.83,1.83,0,0,0-.42,1.08h2.6a1.67,1.67,0,0,0-.31-1.09,1.15,1.15,0,0,0-.91-.38Zm9.12,3.76h0a1.76,1.76,0,0,1-1.56.76,1.86,1.86,0,0,1-1.52-.66,3,3,0,0,1-.54-1.9,3,3,0,0,1,.54-1.91,1.84,1.84,0,0,1,1.52-.68,1.81,1.81,0,0,1,1.55.74h.06l0-.36,0-.35v-2h.75v7h-.61l-.1-.67Zm-1.51.13a1.36,1.36,0,0,0,1.12-.42,2.12,2.12,0,0,0,.35-1.35v-.16a2.54,2.54,0,0,0-.35-1.51,1.35,1.35,0,0,0-1.13-.45,1.13,1.13,0,0,0-1,.52,2.57,2.57,0,0,0-.35,1.45,2.43,2.43,0,0,0,.35,1.44,1.18,1.18,0,0,0,1,.48Zm6.88.54-.15-.71h0a2.14,2.14,0,0,1-.75.64,2.23,2.23,0,0,1-.92.16,1.64,1.64,0,0,1-1.16-.38,1.37,1.37,0,0,1-.42-1.08c0-1,.8-1.53,2.41-1.58l.85,0v-.31a1.24,1.24,0,0,0-.26-.86,1,1,0,0,0-.8-.28,3.32,3.32,0,0,0-1.41.38l-.23-.57a3,3,0,0,1,.8-.31,3.39,3.39,0,0,1,.88-.12,1.85,1.85,0,0,1,1.32.4,1.61,1.61,0,0,1,.43,1.26v3.39Zm-1.7-.53a1.53,1.53,0,0,0,1.11-.39,1.43,1.43,0,0,0,.4-1.07v-.45l-.76,0a2.62,2.62,0,0,0-1.29.28.83.83,0,0,0-.4.77.76.76,0,0,0,.25.62,1,1,0,0,0,.69.21ZM274,39.07a1.6,1.6,0,0,1-.64,1.36,2.73,2.73,0,0,1-1.72.49,4.41,4.41,0,0,1-1.82-.3v-.75a4.64,4.64,0,0,0,.89.28,5.21,5.21,0,0,0,1,.1,1.89,1.89,0,0,0,1.16-.3.94.94,0,0,0,.39-.81,1,1,0,0,0-.14-.56,1.25,1.25,0,0,0-.46-.41,6.48,6.48,0,0,0-1-.42,3,3,0,0,1-1.32-.79,1.69,1.69,0,0,1-.4-1.18,1.48,1.48,0,0,1,.57-1.22,2.44,2.44,0,0,1,1.53-.45,4.51,4.51,0,0,1,1.82.36l-.24.67a4.11,4.11,0,0,0-1.6-.34,1.47,1.47,0,0,0-.95.26.85.85,0,0,0-.35.73,1,1,0,0,0,.13.56,1.07,1.07,0,0,0,.43.41,5,5,0,0,0,.92.4,3.71,3.71,0,0,1,1.44.8,1.58,1.58,0,0,1,.39,1.11Zm2,1.76h-.76v-5H276v5Zm-.82-6.31a.49.49,0,0,1,.13-.38.44.44,0,0,1,.32-.12.45.45,0,0,1,.31.12.49.49,0,0,1,.13.38.5.5,0,0,1-.13.38.45.45,0,0,1-.31.12.44.44,0,0,1-.32-.12.5.5,0,0,1-.13-.38Zm3.17,6.31h-.75v-7h.75v7Zm2.69,0-1.89-5h.81l1.07,3c.24.69.38,1.14.43,1.34h0c0-.16.14-.49.32-1s.57-1.6,1.19-3.3h.81l-1.89,5Zm6.63,0-.15-.71h0a2.12,2.12,0,0,1-.74.64,2.3,2.3,0,0,1-.92.16,1.62,1.62,0,0,1-1.16-.38,1.37,1.37,0,0,1-.42-1.08c0-1,.8-1.53,2.41-1.58l.84,0v-.31a1.24,1.24,0,0,0-.25-.86,1.07,1.07,0,0,0-.81-.28,3.32,3.32,0,0,0-1.4.38l-.24-.57a3.16,3.16,0,0,1,.81-.31,3.28,3.28,0,0,1,.88-.12,1.88,1.88,0,0,1,1.32.4,1.65,1.65,0,0,1,.43,1.26v3.39Zm-1.7-.53a1.52,1.52,0,0,0,1.1-.39,1.39,1.39,0,0,0,.4-1.07v-.45l-.75,0a2.7,2.7,0,0,0-1.3.28.84.84,0,0,0-.39.77.78.78,0,0,0,.24.62A1.06,1.06,0,0,0,285.92,40.3Z"/><path class="cls-1" d="M167,40.76a.25.25,0,1,1-.49,0V21.88a.25.25,0,1,1,.49,0Z"/></g></g></svg>