<svg xmlns="http://www.w3.org/2000/svg" xmlns:xlink="http://www.w3.org/1999/xlink" viewBox="0 0 106.97 199.92"><defs><style>.cls-1{fill:url(#Gradiente_sem_nome_53);}</style><linearGradient id="Gradiente_sem_nome_53" x1="80.47" y1="48.12" x2="8.08" y2="167.22" gradientUnits="userSpaceOnUse"><stop offset="0" stop-color="#e6397b"/><stop offset="0.06" stop-color="#d04281"/><stop offset="0.14" stop-color="#ba4a86"/><stop offset="0.22" stop-color="#ad4f8a"/><stop offset="0.29" stop-color="#a9518b"/><stop offset="0.45" stop-color="#c9659a"/><stop offset="0.68" stop-color="#ff86b3"/><stop offset="1" stop-color="#b92964"/></linearGradient></defs><title>logo_mulher</title><g id="Camada_2" data-name="Camada 2"><g id="Capa_even3" data-name="Capa even3"><path class="cls-1" d="M104.78,90.14q-6.12-18.36-32.89-31c-2.17-.84-9.21-4.31-9.22-4.34Q32.78,39.85,32.78,25.57a14.87,14.87,0,0,1,5.9-12A19.2,19.2,0,0,1,45.4,10a30.86,30.86,0,0,1,9.28-1.26,28.27,28.27,0,0,1,9.78,1.64q14.1,5.25,14.1,21.52c0,10.37-2.43,16.38-12.82,21.26l9.14,4.22c2.32-1.22,1.82-1.17,4-3.08q11.58-10,11.58-23.93A27.8,27.8,0,0,0,81.73,9.51Q71.89,0,54.85,0,37.25,0,26.44,9.72,16.29,18.9,16.28,31.58q0,14.09,16.17,25.89s7.65,5.14,7.65,5.14q3.82,2.51,14.31,7.86Q74.07,80.64,81.73,89.92a33.37,33.37,0,0,1,7.54,21.85,28.38,28.38,0,0,1-10.93,23,37,37,0,0,1-24.15,8.41q-18.24,0-29.5-11A38.73,38.73,0,0,1,16,118.87a41.06,41.06,0,0,1-3.17-15.62A56.87,56.87,0,0,1,14.2,89.7c3.1-12.46,8.32-19.8,22.18-25.28-2.17-1.21-6.79-4.11-7.7-5.08-9.45,4.35-13.78,8.87-19.5,16.81A47.75,47.75,0,0,0,0,104.45q0,19.33,14.64,33.11Q27.78,150,47,151.63v16.66H28.35v13H47v18.64H60V181.28H78.61v-13H60V151.52q18.93-1.86,32-13.85a47.12,47.12,0,0,0,11-15.19A41.36,41.36,0,0,0,107,105.22,46.92,46.92,0,0,0,104.78,90.14Z"/></g></g></svg>