<svg xmlns="http://www.w3.org/2000/svg" viewBox="0 0 578.36 617.06"><defs><style>.cls-1{opacity:0.31;}.cls-2,.cls-4,.cls-5,.cls-6{fill:none;}.cls-2,.cls-3,.cls-6{stroke:#b92964;}.cls-2,.cls-3,.cls-4,.cls-5,.cls-6{stroke-miterlimit:10;}.cls-2,.cls-3,.cls-5{stroke-width:1.11px;}.cls-3{fill:#b92964;}.cls-4,.cls-5{stroke:#4d4d4d;}.cls-4{stroke-width:1.67px;}.cls-6{stroke-width:0.34px;}</style></defs><title>maria</title><g id="Camada_2" data-name="Camada 2"><g id="Capa_even3" data-name="Capa even3"><g class="cls-1"><path class="cls-2" d="M306.34,299S319.79,282.9,340,283.58s27.56,16.13,27.56,16.13"/><path class="cls-2" d="M322.82,299.38s26.54,8.06,44.53,0"/><path class="cls-2" d="M331.94,284.19s-9.12,19.22,8.36,17.2,12.62-14.94,12.62-14.94"/><path class="cls-2" d="M375.26,294s-6.06-21.52-50.43-16.14"/><path class="cls-2" d="M191.72,294s11-15.15,25.53-17.82a23.55,23.55,0,0,1,6.07-.33c17.48,1.34,32.94,16.8,32.94,16.8s-25,3.19-36.73,2.64"/><path class="cls-2" d="M235.93,279.08s6.88,17.61-7.24,16.26-16.28-3.57-10.83-19.26"/><path class="cls-2" d="M256.26,290.64s-.67-15.47-37-18.83"/><path class="cls-2" d="M285.17,380.05s.67-8.74,15.46-8.07c0,0,8.74.68,10.76-6.72s-6.73-16.81-6.73-16.81"/><path class="cls-2" d="M269.7,380.05c-6.05-12.1-13.44-5.38-13.44-5.38s-10.09,4.71-9.41-4.7,1.34-14.79,8.06-19.5"/><path class="cls-3" d="M370.27,271.19c-23.58-16.67-68-8.61-68-8.61l.17-12.36s48.65,2.54,61.27,12.33S370.27,271.19,370.27,271.19Z"/><path class="cls-3" d="M177.89,269.28s9-11.72,16.67-14.2,60.08-1.59,60.08-1.59l8.92-8.92s-29-5.37-71.58,4.3C192,248.87,178.37,258.17,177.89,269.28Z"/><path class="cls-2" d="M311.39,302.74s12.77,12.77,23.53,12.77"/><path class="cls-2" d="M393.14,277.17s-.91-45.07-33.61-91.07c-9.56-13.46-27.64,8.61-42.76,1-10.88-5.47-53.6-24.4-67.91-24.87-45.14-1.49-43.56,4.79-63.19,30.25-24.82,32.18-28.24,67.23-28.24,67.23s-8.07,63.87,2,73.28,3.25,47.06,3.25,47.06"/><path class="cls-2" d="M164.58,347.11s1.59-5.38-6.48-6.72-19.49,8.06-19.49,8.06-86.06,4.71-86.06-32.94-10.75-71.93-41-125S23,75.5,24.32,58.69c0,0,22.16-21.17,35-58.51"/><path class="cls-2" d="M418.28,339s74-12.77,74.63-71.26,51.76-133.79,42.35-164-35-72.61-46.39-76"/><path class="cls-4" d="M298.61,423.75s-141.18-23.53-136.47-34.29-27.57-32.94,154.63,0c0,0,58.49,18.16,64.54-5.37s8.06-40.34-2.69-76.65c0,0-5.38-24.87,24.2-35.63,0,0,12.77-6.05,8.07,17.48s-7.4,32.27,3.36,45,17.48,49.75,19.49,86.72S519.13,499.72,576.94,530L488.2,616s-100.17-55.8-119-57.82-64.54-10.08-117-22.86-91.43-28.23-90.08-35-10.76-18.15,115,7.4c0,0,12.1-2-4-6.05S206.51,487,189,480.9,132.56,450,131.88,442.58s6.05-18.83,30.26-9.42,45,19.5,60.5,22.86,37,10.09,43,8.07-14.12-6.72-14.12-6.72-69.24-18.83-100.17-37.65c0,0-22.86-28.24,14.12-21.52s92.78,28.24,114.29,29.58S298.61,423.75,298.61,423.75Z"/><path class="cls-5" d="M298.61,542.75s-12.77-13.45,6.05-22.86-17.48-16.81-14.11-10.76,14.11,4,14.11,4"/><path class="cls-5" d="M314.08,479.55s-20.17.67-17.48,7.4S310,507.12,310,507.12"/><path class="cls-5" d="M315.42,479.55s-14.79-26.22-24.87-14.79,14.79,6.05,14.79,6.05"/><path class="cls-5" d="M307.35,465.43s-14.11-19.49,12.78-27.56-14.79-19.5-10.09-11.43,12.78,3.36,12.78,3.36"/><path class="cls-5" d="M320.8,417.7s-10.76-16.13,4-19.5"/><path class="cls-5" d="M433.74,479.55s6.73-23.53-9.41-41,5.38,26.89,5.38,26.89,8.07,13.45-2.69-18.15"/><path class="cls-5" d="M213.23,462.74c0,.68,6.05,35,12.1,21.52s-.67-35.63-2.69-22.19,0,20.84,0,20.84"/><path class="cls-5" d="M213.23,417s-8.07,24.2,2,20.84S228,422.41,224,419s-8.74,11.43-8.74,12.11"/><path class="cls-5" d="M233.4,382.74S220,405.6,238.78,407.62s24.2-18.16,17.48-21.52-14.79-4.7-15.46,6.73-4.71,17.48,0,12.1,7.39-13.45,7.39-13.45"/><path class="cls-5" d="M228,505.77s-6.72,18.83,5.38,20.17,12.1-16.14,8.07-18.82-9.41,8.06-9.41,12.1"/><path class="cls-5" d="M389.37,315.51s-10.08-3.36-10.75-8.07"/><path class="cls-6" d="M261.64,289.29s-2-18.82-26.89-21.51,17.47,9.41,17.47,9.41-.67-4.71-14.79-8.07"/><path class="cls-6" d="M279.12,347.11s-15.47,1.34-14.79,12.1,15.46,14.12,22.85,11.43,11.43-12.77,5.38-18.15a21,21,0,0,0-12.77-5.38"/><path class="cls-6" d="M265.67,367.28s-11.43-6.72-5.38-10.76,10.76-9.41,7.4-10.76-11.43.68-9.41,4,4.7,2.69,6.05.67,2.69-4.71-2.69-2"/><path class="cls-6" d="M293.91,367.28s8.06-6.72,4.7-10.76-8.74-7.39-5.37-10.08,12.1-.68,7.39,2-8.07,1.35-5.38,0"/><path class="cls-6" d="M264.33,339c.67-.67,8.74-48.4,1.34-61.85S252.22,253.66,249.54,257s14.79,14.12,14.79,27.57"/><path class="cls-6" d="M297.27,336.35c0-2-12.77-55.13,3.36-69.92,0,0,6.05-8.06,1.34,4.71s-4.7,15.46-4.7,22.86,4.7-20.17,6.72-22.86"/><path class="cls-6" d="M290.55,244.25c0-1.35,1.34-15.46,12.77-12.1"/></g></g></g></svg>